# xmcd
#
# Track frame offsets: 
#        150
#        23094
#        42537
#        60358
#        78434
#        94933
#        111084
#        138107
#        168996
#        187442
#        207048
#        236334
#        250008
#        267520
#        289136
#
# Disc length: 4264 seconds
#
# Revision: 0
# Processed by: cddbd v1.5.2PL0 Copyright (c) Steve Scherf et al.
# Submitted via: ExactAudioCopy v0.99pb3
#
DISCID=d010a60f
DTITLE=Eddie Taylor Jr. - So Called Friends
DYEAR=2012
DGENRE=Blues
TTITLE0=Wild About You Baby
TTITLE1=Welfare Blues
TTITLE2=You Sweet
TTITLE3=Mistress Blues
TTITLE4=So Called Friends
TTITLE5=Use What You Got
TTITLE6=Goin' Upside Your Head
TTITLE7=Easy Baby
TTITLE8=I've Made Nights By Myself
TTITLE9=Stop Breakin Down
TTITLE10=Blues In Your Life
TTITLE11=Pink Champagne
TTITLE12=My Little Machine
TTITLE13=Got To Make This Money
TTITLE14=Forty Four
EXTD=
EXTT0=
EXTT1=
EXTT2=
EXTT3=
EXTT4=
EXTT5=
EXTT6=
EXTT7=
EXTT8=
EXTT9=
EXTT10=
EXTT11=
EXTT12=
EXTT13=
EXTT14=
PLAYORDER=
